name ./resultDataOpenSim/trcMotMarkerGrf/sub10/grf-14-07.mot
datacolumns 19
datarows 27
range 0.50800000 0.61200000
endheader

                time	     ground_force_vx	     ground_force_vy	     ground_force_vz	     ground_force_px	     ground_force_py	     ground_force_pz	   l_ground_force_vx	   l_ground_force_vy	   l_ground_force_vz	   l_ground_force_px	   l_ground_force_py	   l_ground_force_pz	     ground_torque_x	     ground_torque_y	     ground_torque_z	   l_ground_torque_x	   l_ground_torque_y	   l_ground_torque_z	
          0.50800000	         58.37895011	        543.12631365	        -31.91288008	         -0.83103237	          0.00000000	          0.01239445	          0.00000000	          0.00000000	          0.00000000	          0.00000000	          0.00000000	          0.00000000	          0.00000000	          4.62107024	          0.00000000	          0.00000000	          0.00000000	          0.00000000	
          0.51200000	         60.56313664	        549.77549193	        -34.11765068	         -0.82899897	          0.00000000	          0.01268775	          0.00000000	          0.00000000	          0.00000000	          0.00000000	          0.00000000	          0.00000000	          0.00000000	          4.67479672	          0.00000000	          0.00000000	          0.00000000	          0.00000000	
          0.51600000	         63.28695132	        556.31069742	        -36.53664425	         -0.82689817	          0.00000000	          0.01299500	          0.00000000	          0.00000000	          0.00000000	          0.00000000	          0.00000000	          0.00000000	          0.00000000	          4.70978480	          0.00000000	          0.00000000	          0.00000000	          0.00000000	
          0.52000000	         66.40109050	        562.83830161	        -38.97924783	         -0.82471061	          0.00000000	          0.01330073	          0.00000000	          0.00000000	          0.00000000	          0.00000000	          0.00000000	          0.00000000	          0.00000000	          4.73187803	          0.00000000	          0.00000000	          0.00000000	          0.00000000	
          0.52400000	         69.58258880	        569.43128927	        -41.27119716	         -0.82238154	          0.00000000	          0.01359686	          0.00000000	          0.00000000	          0.00000000	          0.00000000	          0.00000000	          0.00000000	          0.00000000	          4.74647205	          0.00000000	          0.00000000	          0.00000000	          0.00000000	
          0.52800000	         72.42441764	        576.12492879	        -43.28616380	         -0.81983565	          0.00000000	          0.01387788	          0.00000000	          0.00000000	          0.00000000	          0.00000000	          0.00000000	          0.00000000	          0.00000000	          4.75719296	          0.00000000	          0.00000000	          0.00000000	          0.00000000	
          0.53200000	         74.54554751	        582.92263043	        -44.96355628	         -0.81700956	          0.00000000	          0.01413772	          0.00000000	          0.00000000	          0.00000000	          0.00000000	          0.00000000	          0.00000000	          0.00000000	          4.76506858	          0.00000000	          0.00000000	          0.00000000	          0.00000000	
          0.53600000	         75.69134942	        589.80944230	        -46.31109999	         -0.81386439	          0.00000000	          0.01436576	          0.00000000	          0.00000000	          0.00000000	          0.00000000	          0.00000000	          0.00000000	          0.00000000	          4.76847026	          0.00000000	          0.00000000	          0.00000000	          0.00000000	
          0.54000000	         75.78978639	        596.79007128	        -47.39193838	         -0.81039181	          0.00000000	          0.01454886	          0.00000000	          0.00000000	          0.00000000	          0.00000000	          0.00000000	          0.00000000	          0.00000000	          4.76388367	          0.00000000	          0.00000000	          0.00000000	          0.00000000	
          0.54400000	         74.95080088	        603.94303549	        -48.29540963	         -0.80662964	          0.00000000	          0.01467489	          0.00000000	          0.00000000	          0.00000000	          0.00000000	          0.00000000	          0.00000000	          0.00000000	          4.74728283	          0.00000000	          0.00000000	          0.00000000	          0.00000000	
          0.54800000	         73.44077770	        611.41202284	        -49.09392342	         -0.80267693	          0.00000000	          0.01473571	          0.00000000	          0.00000000	          0.00000000	          0.00000000	          0.00000000	          0.00000000	          0.00000000	          4.71567615	          0.00000000	          0.00000000	          0.00000000	          0.00000000	
          0.55200000	         71.64203999	        619.30665853	        -49.81193985	         -0.79865035	          0.00000000	          0.01473079	          0.00000000	          0.00000000	          0.00000000	          0.00000000	          0.00000000	          0.00000000	          0.00000000	          4.66839071	          0.00000000	          0.00000000	          0.00000000	          0.00000000	
          0.55600000	         69.97040612	        627.65814016	        -50.43339243	         -0.79462168	          0.00000000	          0.01466817	          0.00000000	          0.00000000	          0.00000000	          0.00000000	          0.00000000	          0.00000000	          0.00000000	          4.60781655	          0.00000000	          0.00000000	          0.00000000	          0.00000000	
          0.56000000	         68.78369261	        636.53759292	        -50.92127889	         -0.79062571	          0.00000000	          0.01455691	          0.00000000	          0.00000000	          0.00000000	          0.00000000	          0.00000000	          0.00000000	          0.00000000	          4.53946486	          0.00000000	          0.00000000	          0.00000000	          0.00000000	
          0.56400000	         68.34649954	        646.18489327	        -51.21219111	         -0.78674142	          0.00000000	          0.01439697	          0.00000000	          0.00000000	          0.00000000	          0.00000000	          0.00000000	          0.00000000	          0.00000000	          4.47122239	          0.00000000	          0.00000000	          0.00000000	          0.00000000	
          0.56800000	         68.82968127	        656.94272491	        -51.21358845	         -0.78312942	          0.00000000	          0.01417925	          0.00000000	          0.00000000	          0.00000000	          0.00000000	          0.00000000	          0.00000000	          0.00000000	          4.41179174	          0.00000000	          0.00000000	          0.00000000	          0.00000000	
          0.57200000	         70.28702237	        669.02449376	        -50.84163221	         -0.77994197	          0.00000000	          0.01389802	          0.00000000	          0.00000000	          0.00000000	          0.00000000	          0.00000000	          0.00000000	          0.00000000	          4.36866868	          0.00000000	          0.00000000	          0.00000000	          0.00000000	
          0.57600000	         72.64862366	        682.32528091	        -50.06512714	         -0.77721240	          0.00000000	          0.01356203	          0.00000000	          0.00000000	          0.00000000	          0.00000000	          0.00000000	          0.00000000	          0.00000000	          4.34639388	          0.00000000	          0.00000000	          0.00000000	          0.00000000	
          0.58000000	         75.79293015	        696.44817330	        -48.91466815	         -0.77485762	          0.00000000	          0.01318502	          0.00000000	          0.00000000	          0.00000000	          0.00000000	          0.00000000	          0.00000000	          0.00000000	          4.34576739	          0.00000000	          0.00000000	          0.00000000	          0.00000000	
          0.58400000	         79.64649159	        710.93865210	        -47.46513004	         -0.77279074	          0.00000000	          0.01277616	          0.00000000	          0.00000000	          0.00000000	          0.00000000	          0.00000000	          0.00000000	          0.00000000	          4.36421085	          0.00000000	          0.00000000	          0.00000000	          0.00000000	
          0.58800000	         84.22547806	        725.50639913	        -45.80399516	         -0.77101804	          0.00000000	          0.01233410	          0.00000000	          0.00000000	          0.00000000	          0.00000000	          0.00000000	          0.00000000	          0.00000000	          4.39698382	          0.00000000	          0.00000000	          0.00000000	          0.00000000	
          0.59200000	         89.60519689	        739.97825147	        -44.00385351	         -0.76960392	          0.00000000	          0.01184955	          0.00000000	          0.00000000	          0.00000000	          0.00000000	          0.00000000	          0.00000000	          0.00000000	          4.43881445	          0.00000000	          0.00000000	          0.00000000	          0.00000000	
          0.59600000	         95.85627504	        754.03104918	        -42.11152515	         -0.76856182	          0.00000000	          0.01131276	          0.00000000	          0.00000000	          0.00000000	          0.00000000	          0.00000000	          0.00000000	          0.00000000	          4.48555076	          0.00000000	          0.00000000	          0.00000000	          0.00000000	
          0.60000000	        102.99305432	        767.06690783	        -40.14151487	         -0.76778396	          0.00000000	          0.01072052	          0.00000000	          0.00000000	          0.00000000	          0.00000000	          0.00000000	          0.00000000	          0.00000000	          4.53544073	          0.00000000	          0.00000000	          0.00000000	          0.00000000	
          0.60400000	        110.96632333	        778.42337040	        -38.07860882	         -0.76714874	          0.00000000	          0.01007375	          0.00000000	          0.00000000	          0.00000000	          0.00000000	          0.00000000	          0.00000000	          0.00000000	          4.58962485	          0.00000000	          0.00000000	          0.00000000	          0.00000000	
          0.60800000	        119.68577689	        787.67200690	        -35.89629609	         -0.76660041	          0.00000000	          0.00938564	          0.00000000	          0.00000000	          0.00000000	          0.00000000	          0.00000000	          0.00000000	          0.00000000	          4.65157322	          0.00000000	          0.00000000	          0.00000000	          0.00000000	
          0.61200000	        129.01988487	        794.68445570	        -33.57138562	         -0.76615889	          0.00000000	          0.00867250	          0.00000000	          0.00000000	          0.00000000	          0.00000000	          0.00000000	          0.00000000	          0.00000000	          4.72555682	          0.00000000	          0.00000000	          0.00000000	          0.00000000	
